# xmcd
#
# Track frame offsets:
#	150
#	17872
#	35440
#	62497
#	87157
#	127225
#
# Disc length: 1960 seconds
# Revision: 0
# Processed by: cddbd v1.5.2PL0 Copyright (c) Steve Scherf et al.
# Submitted via: dBpowerAMP V12.0
#
DISCID=4a07a606
DTITLE=Music Relief '94 - What's Going On
DYEAR=1994
DGENRE=Acid Jazz
TTITLE0=What's Going On [Radio Edit Mix]
TTITLE1=What's Going On [Instrumental Mix]
TTITLE2=What's Going On [We Got It Going On Mix]
TTITLE3=What's Going On [Rapinos Go Big Up the Jungle Club Mix]
TTITLE4=What's Going On [Love To Infinity Anthem Of Love Club Mix]
TTITLE5=What's Going On [Tools Of Sound Groov Mix]
EXTD=
EXTT0=
EXTT1=
EXTT2=
EXTT3=
EXTT4=
EXTT5=
PLAYORDER=
